<svg id="Layer_1" data-name="Layer 1" xmlns="http://www.w3.org/2000/svg" xmlns:xlink="http://www.w3.org/1999/xlink" viewBox="0 0 492.2 451.39"><defs><style>.cls-1{fill:url(#linear-gradient);}.cls-2{fill:url(#linear-gradient-2);}.cls-3{fill:url(#linear-gradient-3);}.cls-4{fill:url(#linear-gradient-4);}.cls-5{fill:url(#linear-gradient-5);}.cls-6{fill:url(#linear-gradient-6);}.cls-7{fill:url(#linear-gradient-7);}.cls-8{fill:#fff;}</style><linearGradient id="linear-gradient" x1="404.57" y1="130.87" x2="340.02" y2="224.02" gradientUnits="userSpaceOnUse"><stop offset="0.12" stop-color="#fff"/><stop offset="1" stop-color="#462c8b"/></linearGradient><linearGradient id="linear-gradient-2" x1="218.44" y1="44.36" x2="302.06" y2="180.05" xlink:href="#linear-gradient"/><linearGradient id="linear-gradient-3" x1="94" y1="185.32" x2="160.01" y2="182.38" xlink:href="#linear-gradient"/><linearGradient id="linear-gradient-4" x1="207.95" y1="564.76" x2="170.54" y2="199.48" xlink:href="#linear-gradient"/><linearGradient id="linear-gradient-5" x1="2399.63" y1="564.76" x2="2362.22" y2="199.48" gradientTransform="matrix(-1, 0, 0, 1, 2688.91, 0)" xlink:href="#linear-gradient"/><linearGradient id="linear-gradient-6" x1="185.52" y1="56.69" x2="338.46" y2="387.86" xlink:href="#linear-gradient"/><linearGradient id="linear-gradient-7" x1="252" y1="72.85" x2="251.12" y2="3.17" xlink:href="#linear-gradient"/></defs><path class="cls-1" d="M361.1,221.39c0,2.06-.12,4.05-.29,6h7.57c6.81,0,12.28-6.67,12.28-15v-53.1c0-8.23-5.47-15-12.28-15h-9.61a64.56,64.56,0,0,1,2.33,17.32Z"/><path class="cls-2" d="M302.82,91.35V108H198.37V91.35c0-10.3,6.81-18.53,15.2-18.53h74.06C296,72.82,302.82,81.05,302.82,91.35Z"/><path class="cls-3" d="M135.2,219.14c0,2.06.12,4.05.29,6h-7.57c-6.81,0-12.28-6.67-12.28-15V157.1c0-8.24,5.47-15,12.28-15h9.61a65.07,65.07,0,0,0-2.33,17.32Z"/><path class="cls-4" d="M146.26,436.72a12.09,12.09,0,0,0,3.65,8.76,12.55,12.55,0,0,0,8.8,3.65h82.11V411.34a11.76,11.76,0,0,0-11.65-11.73V299.7a12.32,12.32,0,0,0-12.39-12.35H202.46a12.31,12.31,0,0,0-12.33,12.35v99.91H179.91a11.8,11.8,0,0,0-11.84,11.73v13h-9.36A12.42,12.42,0,0,0,146.26,436.72Z"/><path class="cls-5" d="M351,436.72a12.09,12.09,0,0,1-3.65,8.76,12.55,12.55,0,0,1-8.8,3.65H256.41V411.34a11.76,11.76,0,0,1,11.65-11.73V299.7a12.32,12.32,0,0,1,12.39-12.35h14.32A12.31,12.31,0,0,1,307.1,299.7v99.91h10.22a11.8,11.8,0,0,1,11.84,11.73v13h9.36A12.42,12.42,0,0,1,351,436.72Z"/><path class="cls-6" d="M361.1,162.83a64.56,64.56,0,0,0-2.33-17.32C352.89,123.71,336,108,316.1,108H180.56c-19.91,0-36.8,15.75-42.68,37.55a65,65,0,0,0-2.33,17.32v59.69c0,2.06.12,4,.29,6,2.45,27.47,21.55,48.84,44.72,48.84H307A15.81,15.81,0,0,1,318.17,282c9.86,9.85,30.09,34.54,40.6,65.43l2.33-118.89h-.29c.17-2,.29-4,.29-6Zm-52.22,79.85H192.32c-14.38,0-26-14.19-26-31.73V174.4c0-17.54,11.65-31.73,26-31.73H308.88c14.38,0,26,14.19,26,31.73V211a37.09,37.09,0,0,1-4.37,17.61C325.88,237.08,317.9,242.68,308.88,242.68Z"/><path class="cls-7" d="M251.26,3.17c-6.6,0-12,6.3-12,14,0,6.47,3.81,11.92,8.94,13.5V72.82h6.17V30.67c5.15-1.59,8.95-7,8.95-13.47C263.33,9.47,257.91,3.17,251.26,3.17Zm0,21.79c-3.15,0-5.8-3.56-5.8-7.76s2.65-7.84,5.8-7.84,5.88,3.58,5.88,7.84S254.45,25,251.26,25Z"/><path class="cls-8" d="M222.75,191.67c0,6-4,10.86-9,10.86s-8.91-4.9-8.91-10.86,4-10.93,8.91-10.93S222.75,185.63,222.75,191.67Z"/><path class="cls-8" d="M289.26,191.67c0,6-4,10.86-8.91,10.86s-8.91-4.9-8.91-10.86,4-10.93,8.91-10.93S289.26,185.63,289.26,191.67Z"/></svg>