<svg id="Layer_1" data-name="Layer 1" xmlns="http://www.w3.org/2000/svg" xmlns:xlink="http://www.w3.org/1999/xlink" viewBox="0 0 492.2 451.39"><defs><style>.cls-1{fill:url(#linear-gradient);}.cls-2{fill:url(#linear-gradient-2);}.cls-3{fill:url(#linear-gradient-3);}.cls-4{fill:url(#linear-gradient-4);}.cls-5{fill:url(#linear-gradient-5);}.cls-6{fill:#fff;}</style><linearGradient id="linear-gradient" x1="440.8" y1="173.81" x2="360.45" y2="289.76" gradientUnits="userSpaceOnUse"><stop offset="0.12" stop-color="#fff"/><stop offset="1" stop-color="#462c8b"/></linearGradient><linearGradient id="linear-gradient-2" x1="209.11" y1="66.12" x2="313.19" y2="235.03" xlink:href="#linear-gradient"/><linearGradient id="linear-gradient-3" x1="54.21" y1="241.59" x2="136.38" y2="237.93" xlink:href="#linear-gradient"/><linearGradient id="linear-gradient-4" x1="168.14" y1="81.47" x2="358.51" y2="493.7" xlink:href="#linear-gradient"/><linearGradient id="linear-gradient-5" x1="250.89" y1="101.59" x2="249.79" y2="14.86" xlink:href="#linear-gradient"/></defs><path class="cls-1" d="M386.69,286.49c0,2.56-.14,5-.36,7.51h9.42c8.48,0,15.29-8.3,15.29-18.64V209.27c0-10.25-6.81-18.65-15.29-18.65h-12a80.57,80.57,0,0,1,2.9,21.56Z"/><path class="cls-2" d="M314.15,124.61v20.68h-130V124.61c0-12.81,8.47-23.06,18.91-23.06h92.18C305.67,101.55,314.15,111.8,314.15,124.61Z"/><path class="cls-3" d="M105.5,283.69c0,2.56.15,5,.37,7.51H96.45c-8.48,0-15.29-8.31-15.29-18.65V206.46c0-10.25,6.81-18.64,15.29-18.64h12a80.92,80.92,0,0,0-2.9,21.56Z"/><path class="cls-4" d="M386.69,213.59a80.52,80.52,0,0,0-2.9-21.56c-7.32-27.12-28.33-46.74-53.12-46.74H162c-24.78,0-45.8,19.62-53.12,46.74a80.92,80.92,0,0,0-2.9,21.56V287.9c0,2.56.15,5,.36,7.51,3,34.19,26.82,60.79,55.66,60.79H319.28a19.73,19.73,0,0,1,14,5.75c12.27,12.26,37.46,43,50.54,81.44l2.9-148h-.36c.22-2.47.36-5,.36-7.51Zm-65,99.4H176.6c-17.9,0-32.39-17.67-32.39-39.49V228c0-21.82,14.49-39.49,32.39-39.49H321.68c17.9,0,32.4,17.67,32.4,39.49V273.5a46.13,46.13,0,0,1-5.44,21.91C342.85,306,332.92,313,321.68,313Z"/><path class="cls-5" d="M250,14.86c-8.22,0-14.93,7.84-14.93,17.46,0,8,4.75,14.84,11.13,16.8v52.43h7.69V49.09c6.4-2,11.13-8.75,11.13-16.77C265,22.7,258.25,14.86,250,14.86ZM250,42c-3.92,0-7.23-4.42-7.23-9.66s3.31-9.76,7.23-9.76,7.32,4.46,7.32,9.76S253.94,42,250,42Z"/><path class="cls-6" d="M214.47,249.49c0,7.42-5,13.52-11.16,13.52s-11.08-6.1-11.08-13.52,5-13.61,11.08-13.61S214.47,242,214.47,249.49Z"/><path class="cls-6" d="M297.27,249.49c0,7.42-4.93,13.52-11.09,13.52s-11.09-6.1-11.09-13.52,4.93-13.61,11.09-13.61S297.27,242,297.27,249.49Z"/></svg>