<svg id="Layer_1" data-name="Layer 1" xmlns="http://www.w3.org/2000/svg" xmlns:xlink="http://www.w3.org/1999/xlink" viewBox="0 0 492.2 99.83"><defs><style>.cls-1{fill:url(#linear-gradient);}.cls-2{fill:url(#linear-gradient-2);}.cls-3{fill:url(#linear-gradient-3);}.cls-4{fill:url(#linear-gradient-4);}.cls-5{fill:url(#linear-gradient-5);}.cls-6{fill:url(#linear-gradient-6);}.cls-7{fill:url(#linear-gradient-7);}.cls-8{fill:url(#linear-gradient-8);}.cls-9{fill:url(#linear-gradient-9);}.cls-10{fill:url(#linear-gradient-10);}.cls-11{fill:url(#linear-gradient-11);}.cls-12{fill:url(#linear-gradient-12);}.cls-13{fill:#fff;}</style><linearGradient id="linear-gradient" x1="126.96" y1="50.68" x2="174.73" y2="50.68" gradientUnits="userSpaceOnUse"><stop offset="0" stop-color="#f2feff"/><stop offset="0.19" stop-color="#eef9ff"/><stop offset="0.43" stop-color="#e4e9ff"/><stop offset="0.69" stop-color="#d3d0fe"/><stop offset="0.97" stop-color="#bbaefd"/><stop offset="1" stop-color="#b8a9fd"/></linearGradient><linearGradient id="linear-gradient-2" x1="182.44" y1="50.68" x2="216.02" y2="50.68" xlink:href="#linear-gradient"/><linearGradient id="linear-gradient-3" x1="222.98" y1="57.43" x2="256.29" y2="57.43" xlink:href="#linear-gradient"/><linearGradient id="linear-gradient-4" x1="260.88" y1="52.74" x2="284.46" y2="52.74" xlink:href="#linear-gradient"/><linearGradient id="linear-gradient-5" x1="291.76" y1="50.68" x2="334.39" y2="50.68" xlink:href="#linear-gradient"/><linearGradient id="linear-gradient-6" x1="343.04" y1="50.68" x2="390.81" y2="50.68" xlink:href="#linear-gradient"/><linearGradient id="linear-gradient-7" x1="393.72" y1="50.68" x2="436.76" y2="50.68" xlink:href="#linear-gradient"/><linearGradient id="linear-gradient-8" x1="115.77" y1="39.67" x2="99.69" y2="62.88" gradientUnits="userSpaceOnUse"><stop offset="0.12" stop-color="#fff"/><stop offset="1" stop-color="#462c8b"/></linearGradient><linearGradient id="linear-gradient-9" x1="69.4" y1="18.11" x2="90.23" y2="51.92" xlink:href="#linear-gradient-8"/><linearGradient id="linear-gradient-10" x1="38.39" y1="53.24" x2="54.84" y2="52.5" xlink:href="#linear-gradient-8"/><linearGradient id="linear-gradient-11" x1="61.2" y1="21.19" x2="99.3" y2="103.7" xlink:href="#linear-gradient-8"/><linearGradient id="linear-gradient-12" x1="77.76" y1="25.21" x2="77.54" y2="7.85" xlink:href="#linear-gradient-8"/></defs><path class="cls-1" d="M151.83,75.68a26.48,26.48,0,0,1-13-3.11,21.86,21.86,0,0,1-8.72-8.75A26.81,26.81,0,0,1,127,50.68a29.51,29.51,0,0,1,.81-7,25.54,25.54,0,0,1,2.33-6.11,21.77,21.77,0,0,1,3.72-5,21.45,21.45,0,0,1,5-3.72,25,25,0,0,1,6-2.33,29.14,29.14,0,0,1,7-.81,29.77,29.77,0,0,1,11,1.92A20.08,20.08,0,0,1,170.75,33a15.71,15.71,0,0,1,3.71,8.18h-6.89a12,12,0,0,0-3-5.41,15.09,15.09,0,0,0-5.44-3.54A19.74,19.74,0,0,0,151.83,31a20,20,0,0,0-5.14.64,17.26,17.26,0,0,0-4.42,1.82,16.3,16.3,0,0,0-3.58,2.87A15.78,15.78,0,0,0,136,40.24a20.81,20.81,0,0,0-1.66,4.83,26.54,26.54,0,0,0-.57,5.61A22.23,22.23,0,0,0,136.05,61a16.7,16.7,0,0,0,6.32,6.83,18,18,0,0,0,9.46,2.43A20.79,20.79,0,0,0,159.26,69a14.63,14.63,0,0,0,5.54-3.58,12.13,12.13,0,0,0,3-5.51h6.89a17.23,17.23,0,0,1-3.95,8.48,19.47,19.47,0,0,1-7.9,5.41A30.66,30.66,0,0,1,151.83,75.68Z"/><path class="cls-2" d="M182.44,74.8V26.56h6.21V48.92l-.54-.61a13.94,13.94,0,0,1,3.14-5.17,12.71,12.71,0,0,1,4.73-3,17.73,17.73,0,0,1,6-1,15.57,15.57,0,0,1,7.4,1.66,11.5,11.5,0,0,1,4.9,5A17.66,17.66,0,0,1,216,54.12V74.8h-6.29V54.87q0-5.07-2.53-7.84a9.26,9.26,0,0,0-7.2-2.77,11.3,11.3,0,0,0-5.81,1.49,10.86,10.86,0,0,0-4.05,4.08,11.75,11.75,0,0,0-1.49,5.92v19Z"/><path class="cls-3" d="M235.68,75.68c-4,0-7.07-.93-9.33-2.77a9.2,9.2,0,0,1-3.37-7.5,8.86,8.86,0,0,1,1.38-5,10.42,10.42,0,0,1,4.09-3.48,19.38,19.38,0,0,1,6.62-1.86l11.35-1.42a4.38,4.38,0,0,0,2.84-1.15,3.35,3.35,0,0,0,.74-2.23V50.2a5.3,5.3,0,0,0-1-3.27,6.51,6.51,0,0,0-3.08-2.13,14.76,14.76,0,0,0-5.07-.74,15,15,0,0,0-7,1.35,5.66,5.66,0,0,0-3,4h-6.29A9.27,9.27,0,0,1,226.9,44a13.7,13.7,0,0,1,5.64-3.51,24.93,24.93,0,0,1,8.27-1.25,23,23,0,0,1,8.59,1.39,10.65,10.65,0,0,1,5.16,4A11.32,11.32,0,0,1,256.29,51V74.8h-6V65.41L251,66a14.78,14.78,0,0,1-3.65,5.64,14.34,14.34,0,0,1-5.24,3.11A20.12,20.12,0,0,1,235.68,75.68Zm1.69-4.93a14.28,14.28,0,0,0,5.07-.88,12.78,12.78,0,0,0,4-2.44,10.42,10.42,0,0,0,2.63-3.71,11.84,11.84,0,0,0,.91-4.66V55l1.42,1.42a10.49,10.49,0,0,1-2.5,1,26.73,26.73,0,0,1-3.31.61l-9.73,1.42a9.88,9.88,0,0,0-4.73,1.83A4.48,4.48,0,0,0,229.46,65a4.91,4.91,0,0,0,2.1,4.22A9.67,9.67,0,0,0,237.37,70.75Z"/><path class="cls-4" d="M260.88,44.93V40.07h8.45v4.86ZM278,74.8a10.35,10.35,0,0,1-7.1-2.33,8.5,8.5,0,0,1-2.63-6.72V30.68h6.21V64.93a4.67,4.67,0,0,0,1.46,3.75,5.29,5.29,0,0,0,3.61,1.25h4.93V74.8Zm-4.6-29.87V40.07h11.08v4.86Z"/><path class="cls-5" d="M291.76,74.8V26.56h8L329.6,68l-1.22,1.22V26.56h6V74.8h-8L296.69,33.38l1.15-1.15V74.8Z"/><path class="cls-6" d="M367.91,75.68a26.48,26.48,0,0,1-13-3.11,21.86,21.86,0,0,1-8.72-8.75A26.81,26.81,0,0,1,343,50.68a29.51,29.51,0,0,1,.81-7,25.56,25.56,0,0,1,2.34-6.11,21.52,21.52,0,0,1,8.68-8.72,25,25,0,0,1,6-2.33,29.14,29.14,0,0,1,7-.81,29.77,29.77,0,0,1,11,1.92A20.08,20.08,0,0,1,386.83,33a15.71,15.71,0,0,1,3.71,8.18h-6.89a12,12,0,0,0-3-5.41,15.09,15.09,0,0,0-5.44-3.54A19.74,19.74,0,0,0,367.91,31a20.05,20.05,0,0,0-5.14.64,17.26,17.26,0,0,0-4.42,1.82,16.3,16.3,0,0,0-3.58,2.87,15.78,15.78,0,0,0-2.67,3.89,20.81,20.81,0,0,0-1.66,4.83,26.54,26.54,0,0,0-.57,5.61A22.23,22.23,0,0,0,352.13,61a16.7,16.7,0,0,0,6.32,6.83,18,18,0,0,0,9.46,2.43A20.79,20.79,0,0,0,375.34,69a14.55,14.55,0,0,0,5.54-3.58,12.13,12.13,0,0,0,3-5.51h6.89a17.23,17.23,0,0,1-3.95,8.48,19.47,19.47,0,0,1-7.9,5.41A30.66,30.66,0,0,1,367.91,75.68Z"/><path class="cls-7" d="M412,74.8V32H393.72v-5.4h43V32H418.52V74.8Z"/><path class="cls-8" d="M104.94,62.22c0,.52,0,1-.07,1.51h1.89c1.69,0,3.06-1.67,3.06-3.73V46.77c0-2.06-1.37-3.74-3.06-3.74h-2.4a16.15,16.15,0,0,1,.58,4.32Z"/><path class="cls-9" d="M90.42,29.82V34h-26V29.82c0-2.56,1.69-4.61,3.78-4.61H86.64C88.72,25.21,90.42,27.26,90.42,29.82Z"/><path class="cls-10" d="M48.66,61.66c0,.52,0,1,.07,1.51H46.84c-1.69,0-3.06-1.67-3.06-3.74V46.2c0-2.05,1.37-3.73,3.06-3.73h2.4a16,16,0,0,0-.58,4.32Z"/><path class="cls-11" d="M104.94,47.63a16,16,0,0,0-.58-4.31C102.9,37.89,98.69,34,93.73,34H60c-5,0-9.17,3.93-10.63,9.36a16,16,0,0,0-.59,4.31V62.51a14.91,14.91,0,0,0,.08,1.5c.61,6.84,5.36,12.17,11.14,12.17H91.45a4,4,0,0,1,2.8,1.15,45.9,45.9,0,0,1,10.11,16.3L104.94,64h-.07c0-.5.07-1,.07-1.5Zm-13,19.9h-29c-3.58,0-6.49-3.54-6.49-7.91V50.51c0-4.36,2.91-7.9,6.49-7.9h29c3.58,0,6.48,3.54,6.48,7.9v9.11A9.29,9.29,0,0,1,97.33,64,6.28,6.28,0,0,1,91.93,67.53Z"/><path class="cls-12" d="M77.58,7.85a3.28,3.28,0,0,0-3,3.5,3.43,3.43,0,0,0,2.23,3.36v10.5h1.53V14.7a3.43,3.43,0,0,0,2.23-3.35A3.29,3.29,0,0,0,77.58,7.85Zm0,5.43c-.79,0-1.45-.88-1.45-1.93s.66-2,1.45-2,1.46.9,1.46,2S78.37,13.28,77.58,13.28Z"/><path class="cls-13" d="M70.47,54.82a2.27,2.27,0,1,1-2.23-2.73A2.51,2.51,0,0,1,70.47,54.82Z"/><path class="cls-13" d="M87,54.82a2.27,2.27,0,1,1-2.22-2.73A2.49,2.49,0,0,1,87,54.82Z"/></svg>